<svg xmlns="http://www.w3.org/2000/svg" viewBox="0 0 24 24" id="connectdevelop"><linearGradient id="a" x1="2.736" x2="18.25" y1="4.153" y2="4.153" gradientUnits="userSpaceOnUse"><stop offset="0" stop-color="#feb041"></stop><stop offset="1" stop-color="#00b0ec"></stop></linearGradient><path fill="url(#a)" d="M2.986 7.058a.25.25 0 0 1-.084-.486l15.014-5.308a.25.25 0 0 1 .167.471L3.069 7.043a.239.239 0 0 1-.083.015z"></path><path fill="#FEB041" d="M.5 12.25a.25.25 0 0 1-.221-.366l5.5-10.5a.25.25 0 0 1 .443.233l-5.5 10.5a.252.252 0 0 1-.222.133z"></path><path fill="#EE4035" d="M6 22.75a.251.251 0 0 1-.222-.134l-5.5-10.5a.25.25 0 0 1 .105-.338.252.252 0 0 1 .338.105l5.5 10.5A.25.25 0 0 1 6 22.75z"></path><path fill="#ED008B" d="M18 22.75H6a.25.25 0 0 1 0-.5h12a.25.25 0 0 1 0 .5z"></path><path fill="#8C4EA2" d="M18 22.75a.25.25 0 0 1-.222-.365l5.5-10.512a.25.25 0 1 1 .443.231l-5.5 10.512a.249.249 0 0 1-.221.134z"></path><path fill="#00B0EC" d="M23.5 12.238a.249.249 0 0 1-.221-.134l-5.5-10.488a.25.25 0 1 1 .442-.232l5.5 10.488a.25.25 0 0 1-.221.366z"></path><path fill="#6AC8C5" d="M18 1.75H6a.25.25 0 0 1 0-.5h12a.25.25 0 0 1 0 .5z"></path><linearGradient id="b" x1="6.117" x2="6.117" y1="4.292" y2="21.505" gradientUnits="userSpaceOnUse"><stop offset="0" stop-color="#6ac8c5"></stop><stop offset="1" stop-color="#ee4035"></stop></linearGradient><path fill="url(#b)" d="M6.117 22.75a.25.25 0 0 1-.25-.25v-21a.25.25 0 0 1 .5 0v21a.25.25 0 0 1-.25.25z"></path><linearGradient id="c" x1="5.75" x2="20.927" y1="14.654" y2="14.654" gradientUnits="userSpaceOnUse"><stop offset="0" stop-color="#ee4035"></stop><stop offset="1" stop-color="#00b0ec"></stop></linearGradient><path fill="url(#c)" d="M6 22.75a.25.25 0 0 1-.183-.421L20.495 6.637a.25.25 0 0 1 .366.342L6.183 22.671A.25.25 0 0 1 6 22.75z"></path><linearGradient id="d" x1="17.75" x2="20.927" y1="14.654" y2="14.654" gradientUnits="userSpaceOnUse"><stop offset="0" stop-color="#ed008b"></stop><stop offset="1" stop-color="#00b0ec"></stop></linearGradient><path fill="url(#d)" d="M18 22.75a.25.25 0 0 1-.247-.292L20.43 6.766a.257.257 0 0 1 .289-.205.25.25 0 0 1 .205.289l-2.677 15.692a.25.25 0 0 1-.247.208z"></path><linearGradient id="e" x1="2.736" x2="18.25" y1="14.654" y2="14.654" gradientUnits="userSpaceOnUse"><stop offset="0" stop-color="#feb041"></stop><stop offset="1" stop-color="#ed008b"></stop></linearGradient><path fill="url(#e)" d="M18 22.75a.252.252 0 0 1-.181-.077L2.805 6.98a.25.25 0 0 1 .362-.346l15.014 15.692a.25.25 0 0 1-.181.424z"></path><linearGradient id="f" x1="2.656" x2="18.25" y1="9.014" y2="9.014" gradientUnits="userSpaceOnUse"><stop offset="0" stop-color="#ee4035"></stop><stop offset="1" stop-color="#00b0ec"></stop></linearGradient><path fill="url(#f)" d="M2.906 16.777a.25.25 0 0 1-.176-.428L17.824 1.323a.25.25 0 1 1 .353.355L3.083 16.705a.252.252 0 0 1-.177.072z"></path><linearGradient id="g" x1="2.656" x2="21.344" y1="16.527" y2="16.527" gradientUnits="userSpaceOnUse"><stop offset="0" stop-color="#ee4035"></stop><stop offset="1" stop-color="#8c4ea2"></stop></linearGradient><path fill="url(#g)" d="M21.094 16.777H2.906a.25.25 0 0 1 0-.5h18.188a.25.25 0 0 1 0 .5z"></path><linearGradient id="h" x1="5.75" x2="21.344" y1="9.014" y2="9.014" gradientUnits="userSpaceOnUse"><stop offset="0" stop-color="#6ac8c5"></stop><stop offset="1" stop-color="#8c4ea2"></stop></linearGradient><path fill="url(#h)" d="M21.094 16.777a.247.247 0 0 1-.176-.073L5.824 1.677a.25.25 0 1 1 .352-.354L21.27 16.35a.249.249 0 0 1-.176.427z"></path><circle cx="17.875" cy="1.516" r=".671" fill="#00B0EC"></circle><circle cx="2.906" cy="16.667" r=".671" fill="#EE4035"></circle><circle cx="6.117" cy="1.516" r=".75" fill="#6AC8C5"></circle><circle cx="12.283" cy="1.516" r=".75" fill="#6AC8C5"></circle><circle cx="12.283" cy="22.5" r=".75" fill="#ED008B"></circle><circle cx="6.117" cy="22.496" r=".75" fill="#EE4035"></circle><circle cx="20.677" cy="6.808" r=".75" fill="#00B0EC"></circle><circle cx="2.986" cy="6.808" r=".75" fill="#FEB041"></circle><circle cx="23.25" cy="11.998" r=".75" fill="#8C4EA2"></circle><circle cx=".75" cy="11.998" r=".75" fill="#FEB041"></circle><circle cx="21.094" cy="16.667" r=".75" fill="#8C4EA2"></circle><circle cx="17.958" cy="22.496" r=".75" fill="#ED008B"></circle></svg>